<svg xmlns="http://www.w3.org/2000/svg" version="1.1" xmlns:xlink="http://www.w3.org/1999/xlink" xmlns:svgjs="http://svgjs.dev/svgjs" width="270" height="270"><svg width="270" height="270" viewBox="0 0 270 270" fill="none" xmlns="http://www.w3.org/2000/svg">
<rect x="2.5" y="2.5" width="265" height="265" rx="37.5" fill="url(#paint0_linear_1_3)"></rect>
<rect x="2.5" y="2.5" width="265" height="265" rx="37.5" fill="url(#paint1_linear_1_3)"></rect>
<rect x="2.5" y="2.5" width="265" height="265" rx="37.5" stroke="#344386" stroke-width="5"></rect>
<path d="M65.9458 51C41.6579 51 22 69.8993 22 93.25V177.75C22 201.101 41.6579 220 65.9458 220C90.2336 220 109.892 201.101 109.892 177.75V93.25C109.892 69.8993 90.2336 51 65.9458 51ZM84.7797 135.5H47.1119V93.25C47.1119 83.2533 55.5479 75.1429 65.9458 75.1429C76.3436 75.1429 84.7797 83.2533 84.7797 93.25V135.5ZM139.594 124.296C138.221 122.976 135.906 123.127 134.768 124.598C116.993 148.175 118.916 181.221 141.007 202.459C163.097 223.697 197.469 225.545 221.992 208.457C223.562 207.363 223.68 205.137 222.306 203.817L139.594 124.296ZM229.761 117.129C207.671 95.8906 173.299 94.0422 148.776 111.131C147.206 112.225 147.088 114.45 148.462 115.771L231.174 195.291C232.547 196.612 234.862 196.461 236 194.99C253.775 171.375 251.891 138.367 229.761 117.129Z" fill="#50A2FF" stroke="black" stroke-opacity="0.45"></path>
<defs>
<linearGradient id="SvgjsLinearGradient1211" x1="8.36266" y1="-2.66721e-06" x2="261.637" y2="270" gradientUnits="userSpaceOnUse">
<stop stop-color="#263150"></stop>
<stop offset="1" stop-color="#263150"></stop>
</linearGradient>
<linearGradient id="SvgjsLinearGradient1210" x1="12.5" y1="8.50001" x2="259" y2="255" gradientUnits="userSpaceOnUse">
<stop stop-color="#382950" stop-opacity="0"></stop>
<stop offset="1" stop-color="#382950"></stop>
</linearGradient>
</defs>
</svg><style>@media (prefers-color-scheme: light) { :root { filter: none; } }
@media (prefers-color-scheme: dark) { :root { filter: none; } }
</style></svg>